<svg xmlns="http://www.w3.org/2000/svg" viewBox="0 0 960 560" enable-background="new 0 0 960 560"><g fill="#fff"><path d="M312.1 540.1c-.3 0-.6-.1-1-.2l-13.8-6.5c-1.1-.5-1.6-1.9-1.1-3s1.9-1.6 3-1.1l10.2 4.8-2.7-24.6c-.1-.9.3-1.7 1-2.2.7-.5 1.7-.5 2.4 0l13.1 8.2-2.6-23.9c-.1-.7.2-1.4.7-1.9.5-.5 1.2-.7 1.9-.6l20.6 3.7 14.1 3.3c.6.1 1.2.5 1.5 1.1.3.6.4 1.2.2 1.8l-4.2 12.1 14.2 1c1.2.1 2.2 1.2 2.1 2.4-.1 1.2-1.2 2.2-2.4 2.1l-17.1-1.2c-.7 0-1.3-.4-1.7-1-.4-.6-.5-1.3-.3-2l4.3-12.6-11.6-2.7-17.5-3.2 2.8 25.5c.1.9-.3 1.7-1 2.2-.7.5-1.7.5-2.4 0l-13.1-8.2 2.6 23.9c.1.8-.3 1.6-.9 2.1-.4.5-.8.7-1.3.7M341.8 556c-.7 0-1.4-.4-1.8-1-.5-.7-.5-1.6-.2-2.3l10.3-20.9-18.1-7.9c-1.1-.5-1.6-1.8-1.2-2.9l9.6-24.1-17.9-3.2c-1-.2-1.8-1-1.8-2.1l-.8-12.5-13.7 4.1c-.6.2-1.3.1-1.9-.3-.6-.4-.9-.9-1-1.6l-2.5-19.8c-.2-1.2.7-2.4 2-2.5 1.2-.2 2.4.7 2.5 2l2.2 17.1 13.9-4.2c.7-.2 1.4-.1 1.9.3.6.4.9 1 1 1.7l.9 13.6 18.9 3.4c.7.1 1.2.5 1.6 1.1.3.6.4 1.3.1 1.9l-9.8 24.7 18.2 8c.6.2 1 .7 1.2 1.3.2.6.2 1.2-.1 1.8l-9.5 19.3 10.5-1.2c1.2-.1 2.3.8 2.5 2 .1 1.2-.8 2.4-2 2.5L342 556h-.2M343.5 482c-.7 4-4.5 6.8-8.5 6.1-4-.7-6.8-4.5-6.1-8.5.7-4 4.5-6.8 8.5-6.1 4.1.6 6.8 4.5 6.1 8.5M202.4 142.5c-.3 0-.6-.1-.8-.2l-15.1-6.1c-1.2-.5-1.7-1.8-1.2-2.9.5-1.2 1.8-1.7 2.9-1.2l11.8 4.7-1-17.1c0-.8.4-1.6 1.1-2 .7-.4 1.6-.5 2.3-.1l14.7 8.3-2.7-21.2c-.2-1.2.7-2.3 1.9-2.5l20-2.8 14.6-9.4.3-20.1c0-.9.5-1.7 1.3-2l13.6-6.2c1.1-.5 2.5 0 3 1.1s0 2.5-1.1 3l-12.3 5.6-.3 19.9c0 .8-.4 1.5-1 1.9l-16 10.3c-.3.2-.6.3-.9.3l-18.2 2.6 3 23.4c.1.8-.3 1.7-1 2.2-.7.5-1.6.5-2.4.1l-15.1-8.4.9 16.5c0 .8-.3 1.5-.9 2-.5.2-1 .3-1.4.3M245.4 148.8c-.6 0-1.2-.3-1.6-.7-.5-.6-.7-1.3-.5-2.1l4.1-16.4-19.2 5.8c-.8.2-1.7 0-2.2-.6-.6-.6-.8-1.4-.6-2.2l8.5-28.2-17 2.4c-1.2.2-2.3-.7-2.5-1.9l-3-18.8-14.8 9.7c-.6.4-1.4.5-2.1.2-.7-.3-1.2-.9-1.3-1.7l-3.7-21.5c-.2-1.2.6-2.4 1.8-2.6 1.2-.2 2.4.6 2.6 1.8l3.2 18.1 14.8-9.8c.6-.4 1.4-.5 2.1-.2.7.3 1.2 1 1.3 1.7l3.2 20.1 18.2-2.6c.8-.1 1.5.2 2 .8.5.6.7 1.4.4 2.1l-8.3 27.6 19-5.7c.8-.2 1.6 0 2.2.5.6.6.8 1.4.6 2.2l-4.3 16.9 11.9-2.2c1.2-.2 2.4.6 2.6 1.8.2 1.2-.6 2.4-1.8 2.6l-15.4 2.9h-.2M234.8 89.4c-.4 4.1-4.1 7-8.1 6.6-4.1-.4-7-4.1-6.6-8.1.4-4.1 4.1-7 8.1-6.6 4.1.5 7 4.1 6.6 8.1M777.9 303.9l-16.5-.1c-1.3 0-2.3-1-2.3-2.3 0-1.3 1-2.3 2.3-2.3l13.7.1-5.9-29.8c-.2-.8.1-1.7.8-2.2.6-.5 1.5-.7 2.3-.4l8.1 3-7.1-18.5c-.5-1.2.1-2.5 1.3-3s2.5.1 3 1.3l9 23.2c.3.8.1 1.8-.5 2.4-.6.6-1.6.9-2.4.5l-9-3.3 5.6 28.5c.1.7 0 1.4-.5 1.9-.6.7-1.2 1-1.9 1M813.5 255c-.4 0-.8-.1-1.2-.3L794.6 244l-18.3 8.7c-1.1.5-2.5.1-3.1-1.1-.5-1.1-.1-2.5 1.1-3.1l19.4-9.2c.7-.3 1.5-.3 2.2.1l16.1 9.8 4.8-18.3c.2-.7.7-1.3 1.4-1.6l13.5-4.9c1.2-.4 2.5.2 3 1.4.4 1.2-.2 2.5-1.4 3l-12.4 4.5-5.3 20.1c-.2.7-.7 1.3-1.4 1.6-.1-.1-.4 0-.7 0M757.7 274.7c-.5 0-1-.2-1.5-.5l-11.9-9.7c-.9-.8-1.1-2.1-.4-3.1l10-14.3c.5-.7 1.3-1.1 2.1-1l19.5 2.1c1.3.1 2.2 1.3 2 2.5-.1 1.3-1.3 2.2-2.5 2l-18.2-1.9-8 11.4 10.2 8.3c1 .8 1.1 2.3.3 3.2-.3.7-1 1-1.6 1M801.8 296.6c-.5 0-1-.1-1.3-.4-.6-.4-1-1.2-1-1.9l.7-30.4-8.9 2.4c-.8.2-1.6 0-2.2-.5-.6-.5-.9-1.3-.7-2.1l4-22.8c.2-1.3 1.4-2.1 2.7-1.9 1.3.2 2.1 1.4 1.9 2.7l-3.4 19.2 8.3-2.3c.7-.2 1.5 0 2 .4.6.4.9 1.1.9 1.9l-.7 30.1 13.7-4.9c1.2-.4 2.5.2 2.9 1.4.4 1.2-.2 2.5-1.4 2.9l-16.8 6c-.2.2-.5.2-.7.2M834.4 213.6c.3 4.1-2.7 7.6-6.8 7.9-4.1.3-7.6-2.7-7.9-6.8-.3-4.1 2.7-7.6 6.8-7.9 4-.4 7.6 2.7 7.9 6.8M268.2 120c0 4-3.3 7.2-7.3 7.2s-7.3-3.2-7.3-7.2 3.3-7.2 7.3-7.2 7.3 3.2 7.3 7.2M261.2 114.5c-3.3 0-6 2.7-6 6s2.7 6 6 6 6-2.7 6-6-2.7-6-6-6m-.3 13.5c-4.5 0-8.1-3.6-8.1-8s3.6-8 8.1-8 8.1 3.6 8.1 8-3.6 8-8.1 8"/></g><path fill="#fff" d="M349.5 170.9c-.1 0-.3.1-.4.1-1.2.2-2.4-.6-2.6-1.9l-2.3-14.2-10.5 1.7 1.5 8.9c.2 1.2-.6 2.4-1.9 2.6-1.2.2-2.4-.6-2.6-1.9l-1.8-11.2c-.2-1.2.6-2.4 1.9-2.6l14.9-2.5c.6-.1 1.2 0 1.7.4.5.3.8.9.9 1.5l2.7 16.4c.2 1.3-.5 2.4-1.5 2.7m-10.4 29.6c-.1 0-.3.1-.4.1-1.2.2-2.4-.6-2.6-1.9l-1.4-8.5c-.2-1.2.6-2.4 1.9-2.6 1.2-.2 2.4.6 2.6 1.9l1.4 8.5c.2 1.1-.5 2.1-1.5 2.5m15.8 2.8c-.1 0-.3.1-.4.1-1.2.2-2.4-.6-2.6-1.9l-3.1-18.9c-.2-1.2.6-2.4 1.9-2.6 1.2-.2 2.4.6 2.6 1.9l3.1 18.9c.1 1.1-.5 2.1-1.5 2.5m4.8 29.2c-.1 0-.3.1-.4.1l-14.9 2.5c-1.2.2-2.4-.6-2.6-1.9l-1.7-10.5c-.2-1.2.6-2.4 1.9-2.6 1.2-.2 2.4.6 2.6 1.9l1.4 8.2 10.5-1.7-2.2-13.1c-.2-1.2.6-2.4 1.9-2.6 1.2-.2 2.4.6 2.6 1.9l2.5 15.3c.1.6 0 1.2-.4 1.7-.4.4-.7.6-1.2.8M438.8 238.1l10.7 1.2 8.2-74-9.2-1-4.9 44.3c-.1.6-.4 1.1-.8 1.5-.5.4-1.1.5-1.7.5h-.2c-.9-.1-1.6-.7-1.9-1.5l-15.3-47.5-12.7-1.4-8.2 74 9.2 1 5.3-48.4c.1-.6.4-1.1.8-1.5.5-.4 1.1-.5 1.7-.5h.2c.9.1 1.6.7 1.9 1.5l16.9 51.8zm12.7 5.9h-.3l-14.4-1.6c-.9-.1-1.6-.7-1.9-1.5l-14.3-43.8-4.5 40.8c-.1.6-.4 1.1-.8 1.5-.5.4-1.1.5-1.7.5l-13.7-1.5c-1.2-.1-2.1-1.2-2-2.5l8.7-78.5c.1-.6.4-1.1.8-1.5.5-.4 1.1-.5 1.7-.5l16.4 1.8c.9.1 1.6.7 1.9 1.5l12.7 39.3 4-36.6c.1-.6.4-1.1.8-1.5.5-.4 1.1-.5 1.7-.5l13.7 1.5c1.2.1 2.1 1.3 2 2.5l-8.7 78.5c0 1.2-.9 2.1-2.1 2.1M515.1 146.2c-15.1.3-22.3 8.3-22.1 24.5l.3 28.2c.2 16.3 7.7 24.1 23 24h.3c15.1-.3 22.3-8.3 22.1-24.5v-1l-10.6.1v3c.1 9-3.7 13.4-11.8 13.5-4 0-6.9-.9-8.9-2.8-2.3-2.2-3.4-5.6-3.5-10.4l-.4-32.2c-.1-9 3.8-13.4 11.8-13.6 8.3-.1 12.3 4.2 12.4 13.2l10.6-.1c-.4-7.6-2.6-13.2-6.4-16.8-3.8-3.5-9.3-5.2-16.5-5.1h-.3zm1.5 81.2h-.3c-17.8.2-27.3-9.6-27.5-28.4l-.3-28.2c-.2-18.7 9-28.7 26.6-29h.3c8.4-.1 15 2 19.6 6.3 5.1 4.8 7.8 12.2 7.9 22.1v.3c0 1.2-1 2.2-2.2 2.3l-15.1.2c-.6 0-1.2-.2-1.6-.6-.4-.4-.7-1-.7-1.6v-2.2c-.1-7.4-2.9-8.9-7.7-8.8-4.8.1-7.6 1.6-7.5 9l.4 32.2c0 3.5.7 5.9 2.1 7.2 1.1 1.1 2.9 1.6 5.6 1.6 4.9-.1 7.6-1.6 7.5-9l-.1-5.3c0-1.2 1-2.3 2.2-2.3l15.1-.2c.6 0 1.2.2 1.6.6s.7 1 .7 1.6v3.3c.2 18.5-9 28.6-26.6 28.9M573.3 237.4c-.6 0-1.1-.2-1.6-.6-.5-.5-.8-1.1-.7-1.8l5.8-81.2c.1-1 .8-1.9 1.9-2.1l19.1-3.3c1-.2 2 .4 2.5 1.3l7.3 16.8c.5 1.1 0 2.5-1.2 3-1.1.5-2.5 0-3-1.2l-6.5-15.1-15.6 2.7-5.4 76.5 9.8-1.7 1.2-15.4c.1-1 .8-1.9 1.9-2l20.6-3.6c1-.2 2.1.4 2.5 1.3l5.9 14.1 9.6-1.7-11.5-26.6c-.5-1.1 0-2.5 1.2-3 1.1-.5 2.5 0 3 1.2l12.7 29.3c.3.6.2 1.4-.1 2-.3.6-.9 1-1.6 1.2l-14.2 2.5c-1 .2-2.1-.4-2.5-1.3l-5.9-14.1-17.1 3-1.2 15.4c-.1 1-.8 1.9-1.9 2l-14.3 2.5c-.4-.1-.5-.1-.7-.1M318.2 315.9l4.4 16.8 5.3-1.4c2.7-.7 4.6-1.9 5.6-3.5 1-1.7 1.2-4.1.4-7-1.6-6-4.8-6.7-7.1-6.7-1 0-2.1.2-3.3.5l-5.3 1.3zm2.8 21.8c-.4 0-.8-.1-1.1-.3-.5-.3-.9-.8-1-1.4l-5.6-21.2c-.2-.6-.1-1.2.2-1.7.3-.5.8-.9 1.4-1l7.5-2c1.6-.4 3.1-.6 4.5-.6 4 0 9.3 1.7 11.5 10.1 1.1 4.2.8 7.7-.9 10.5-1.6 2.6-4.4 4.5-8.3 5.5l-7.5 2c-.3 0-.5.1-.7.1m-20.6-30l19.1 72 10.2-2.7-7.7-28.9c-.3-1.2.4-2.4 1.6-2.8l7-1.8c.9-.2 1.8.1 2.4.8l20 26.5 10.9-2.9-21.3-27.6c-.4-.5-.5-1.1-.4-1.7.1-.6.4-1.1.9-1.5 6.1-4.4 7.9-10.9 5.5-20.1-2.8-10.5-9.2-15.8-19.2-15.8-3 0-6.4.5-10 1.4l-19 5.1zm17.5 77c-1 0-1.9-.7-2.2-1.7l-20.2-76.4c-.3-1.2.4-2.4 1.6-2.8l21.1-5.6c18.2-4.8 30.5 1.5 34.7 17.6 2.7 10.1.9 18-5.4 23.5l22 28.5c.5.6.6 1.4.4 2.1-.2.7-.8 1.3-1.6 1.5l-15.6 4.1c-.9.2-1.8-.1-2.4-.8l-20-26.5-3.3.9 7.7 28.9c.2.6.1 1.2-.2 1.7-.3.5-.8.9-1.4 1l-14.6 3.9c-.2 0-.4.1-.6.1M392.9 328.2c-1.1 0-2.1-.9-2.2-2l-.6-6c-.1-1.2.8-2.3 2-2.5 1.2-.1 2.3.8 2.5 2l.6 6c.1 1.2-.8 2.3-2 2.5h-.3m15.5 3.7c-1.1 0-2.1-.9-2.2-2l-1.7-17.1c-.1-1.2.8-2.3 2-2.5 1.2-.1 2.3.8 2.5 2l1.7 17.1c.1 1.2-.8 2.3-2 2.5h-.3m9.8 16.4c-5.3 0-8.7-2.4-10.4-7.3-.4-1.2.2-2.5 1.4-2.9 1.2-.4 2.5.2 2.9 1.4 1.2 3.5 3.2 4.6 7.7 4.2 2.7-.3 4.4-1 5.4-2.2 1.2-1.4 1.6-3.9 1.3-7.4l-3.2-32c-.3-3.5-1.3-5.9-2.7-7-1.2-1-3.1-1.3-5.7-1.1-4.6.5-7.1 2-6.8 8.5.1 1.2-.9 2.3-2.1 2.4-1.2.1-2.3-.9-2.4-2.1-.5-8.1 3.1-12.5 10.8-13.3 3.9-.4 6.8.3 9 2.1 2.5 2 3.9 5.3 4.3 10.1l3.2 32c.5 4.8-.3 8.3-2.3 10.7-1.8 2.2-4.6 3.4-8.4 3.8-.7.1-1.4.1-2 .1m-1 13.4c-11.1 0-18.7-4.7-22.7-14.1-.5-1.1 0-2.5 1.2-3 1.1-.5 2.5 0 3 1.2 3.7 8.6 11.1 12.3 22.4 11.1 15.2-1.5 21.8-10.1 20.2-26.3l-2.8-28.1c-1.6-16.2-9.8-23.4-25-21.9-12.6 1.3-19.3 7.4-20.3 18.6-.1 1.2-1.2 2.1-2.4 2-1.2-.1-2.2-1.2-2-2.4 1.2-13.4 9.6-21.3 24.3-22.7 17.7-1.7 28 7.2 29.9 25.9l2.8 28.1c1.9 18.7-6.5 29.5-24.2 31.3-1.6.2-3 .3-4.4.3M496.3 340.4h9.3l-4.6-20.2-4.7 20.2zm12.1 4.5h-15c-.7 0-1.3-.3-1.8-.9-.4-.5-.6-1.2-.4-1.9l7.5-31.9c.2-1 1.1-1.7 2.2-1.7h.2c1.1 0 2 .7 2.2 1.8l7.3 32c.2.7 0 1.4-.4 1.9-.4.4-1.1.7-1.8.7m8.8 25.5h9.8l-17.8-74.5h-15.8l-18.6 74.5h9.9l3.9-14.9c.3-1 1.2-1.7 2.2-1.7h20.9c1.1 0 2 .7 2.2 1.8l3.3 14.8zm12.6 4.5h-14.4c-1.1 0-2-.7-2.2-1.8l-3.4-14.9h-17.4l-3.9 14.9c-.3 1-1.2 1.7-2.2 1.7h-14.6c-.7 0-1.3-.3-1.8-.9-.4-.5-.6-1.3-.4-1.9l19.7-79c.3-1 1.2-1.7 2.2-1.7h19.4c1 0 1.9.7 2.2 1.7l18.9 79c.2.7 0 1.4-.4 1.9-.3.7-1 1-1.7 1M574.8 359.8l3 .2c.5 0 1.1.1 1.6.1 4.8 0 9.4-1.5 10.3-12.7l1.6-20.7c.9-11.3-2.9-13.8-9.8-14.3l-3-.2-3.7 47.6zm4.6 4.8c-.6 0-1.3 0-1.9-.1l-5.2-.4c-.6 0-1.1-.3-1.5-.8-.4-.5-.6-1-.5-1.6l4-52.2c.1-1.2 1.1-2.2 2.4-2.1l5.2.4c10.6.8 14.9 6.7 14 19.1l-1.6 20.7c-1 11.5-5.8 17-14.9 17m-20.6 7.3l18.7 1.4c17 1.3 25.3-5.7 27.2-23.2l1.8-24.1c.8-17.6-6.2-25.7-23.3-27l-18.7-1.4-5.7 74.3zm22.5 6.1c-1.3 0-2.7-.1-4.2-.2l-21-1.6c-1.2-.1-2.2-1.2-2.1-2.4l6-78.8c.1-1.2 1.1-2.2 2.4-2.1l20.9 1.6c19.6 1.5 28.4 11.6 27.5 31.7l-1.9 24.3c-1.8 18.6-10.9 27.5-27.6 27.5M637.6 348.8c2.1 12.5 8.9 19.7 20.2 21.3 1.7.2 3.4.4 4.9.4 11.5 0 19-6.3 20.6-17.2 1.9-13.1-7.9-20.3-16.6-26.6-6.6-4.9-12.4-9.1-11.5-15.2.9-6.6 5.6-10.2 12-9.3 7 1 9.6 6.5 10.9 11.8l9.7-1.4c-1.7-10.1-8.6-16.7-19.2-18.2-1.7-.2-3.3-.4-4.9-.4-11 0-17.6 5.9-19.2 17-1.5 10.7 6.9 17 15.1 23 7.3 5.4 14.2 10.6 13.1 18.5-.9 6.1-5.2 10.1-11.2 10.1-.6 0-1.3 0-1.9-.1-5-.7-10.4-4.8-11.5-14.3l-10.5.6zm25.2 26.2c-1.8 0-3.7-.1-5.6-.4-9.8-1.4-22-7.3-24.4-27.6-.1-.6.1-1.2.5-1.7s1-.8 1.6-.8l15.2-1.1c.6 0 1.2.2 1.7.6.5.4.7 1 .8 1.6.3 8.3 4.3 11.8 7.8 12.3.4.1.8.1 1.3.1 3.7 0 6.2-2.3 6.7-6.2.8-5.3-4.8-9.5-11.3-14.3-8.3-6.2-18.7-13.9-16.8-27.3 1.9-13.3 10.5-20.9 23.6-20.9 1.8 0 3.6.1 5.5.4 13.4 1.9 22.1 11 23.3 24.4.1 1.2-.7 2.3-1.9 2.4l-14 2c-1.2.2-2.3-.6-2.5-1.8-1.5-7.8-4.1-9.7-7.6-10.2-4-.6-6.3 1.3-6.9 5.5-.5 3.5 4.2 7 9.7 11 8.7 6.4 20.6 15.1 18.4 30.9-2 13.2-11.3 21.1-25.1 21.1"/><path fill="#fff" d="M338.4 227.4c-.7-4.4 5.6-7.5 12.2-10.8 6.1-3 12.3-6.1 11.7-9.8-.6-3.7-7.5-4.6-14.2-5.5-7.4-1-14.3-1.9-15.1-6.4-.7-4.4 5.6-7.5 12.3-10.8 6.1-3 12.3-6.1 11.7-9.8-.6-3.7-7.5-4.6-14.2-5.5-7.4-1-14.3-1.9-15.1-6.4l1-.2c.6 3.7 7.5 4.6 14.2 5.5 7.4 1 14.3 1.9 15 6.4.7 4.4-5.6 7.5-12.2 10.8-6.1 3-12.3 6.1-11.7 9.8.6 3.7 7.5 4.6 14.2 5.5 7.4 1 14.3 1.9 15.1 6.4.7 4.4-5.6 7.5-12.3 10.8-6 3-12.3 6.1-11.7 9.8l-.9.2zM339.6 229.2c-.1 0-.2.1-.4.1-1.1.2-2.1-.6-2.3-1.7-.9-5.5 6.2-9 13.1-12.4 5-2.5 11.3-5.6 10.9-8.2-.4-2.6-7.3-3.5-12.9-4.3-7.6-1-15.4-2.1-16.4-7.6-.9-5.5 6.2-9 13.1-12.4 5-2.5 11.3-5.6 10.9-8.1-.4-2.6-7.3-3.5-12.9-4.3-7.6-1-15.5-2.1-16.4-7.6-.2-1.1.6-2.1 1.7-2.3 1.1-.2 2.1.6 2.3 1.7.4 2.6 7.3 3.5 12.9 4.3 7.6 1 15.4 2.1 16.3 7.6.9 5.5-6.2 9-13.1 12.4-5 2.5-11.3 5.6-10.9 8.1.4 2.6 7.3 3.5 12.9 4.3 7.6 1 15.4 2.1 16.4 7.6.9 5.5-6.2 9-13.1 12.4-5 2.5-11.3 5.6-10.9 8.2.2 1-.3 1.9-1.2 2.2M392.5 352.8c-1 0-1.8-.7-1.9-1.7-.5-4.9 5.8-7.5 11.8-10.1 4.1-1.7 9.7-4.1 9.5-6.2-.2-2-6.2-3.1-10.6-3.9-6.5-1.2-13.2-2.4-13.8-7.3-.5-4.9 5.8-7.5 11.8-10.1 4.1-1.7 9.7-4.1 9.5-6.2-.2-2-6.2-3.1-10.6-3.9-6.5-1.2-13.2-2.4-13.8-7.3-.1-1.1.6-2 1.7-2.1 1.1-.1 2 .6 2.1 1.7.2 2 6.2 3.1 10.6 3.9 6.5 1.2 13.2 2.4 13.8 7.3.5 4.9-5.7 7.5-11.8 10.1-4.1 1.7-9.7 4.1-9.5 6.2.2 2 6.2 3.1 10.6 3.9 6.5 1.2 13.2 2.4 13.8 7.3.5 4.9-5.7 7.5-11.8 10.1-4.1 1.7-9.7 4.1-9.5 6.2.1 1.1-.6 2-1.7 2.1h-.2M528.8 162.2c-.3 0-.6-.1-.9-.3-.5-.5-.6-1.3-.1-1.8l14.8-16.8c.5-.5 1.3-.6 1.8-.1s.6 1.3.1 1.8l-14.8 16.8c-.2.2-.6.4-.9.4M547.3 155h-.2l-22.2-2.3c-.7-.1-1.2-.7-1.1-1.4.1-.7.7-1.2 1.4-1.1l22.2 2.3c.7.1 1.2.7 1.2 1.4-.1.6-.7 1-1.3 1.1M497.6 280.6l10.3-.2-5.5-12.1-4.8 12.3zm12 4.1h-16.1c-.6 0-1.2-.3-1.6-.9-.4-.5-.4-1.2-.2-1.8l7.8-19.1c.3-.7 1-1.2 1.8-1.2s1.5.5 1.8 1.2l8.3 19.1c.3.6.2 1.3-.2 1.8-.3.6-.9.9-1.6.9M319.9 404.8c-1.4 0-2.8-.3-4.1-.8-3.9-1.6-6.4-5.3-6.7-9.9-.1-1.1.8-2.2 1.9-2.2 1.1-.1 2.2.8 2.2 1.9.2 3 1.8 5.4 4.2 6.4 2.4 1 5.1.5 7.5-1.4.9-.7 2.2-.6 2.9.3.7.9.6 2.2-.3 2.9-2.2 1.8-4.9 2.8-7.6 2.8M657.7 324.1c-.8 0-1.4.6-1.4 1.4s.6 1.4 1.4 1.4c.8 0 1.4-.6 1.4-1.4s-.6-1.4-1.4-1.4m0 5.1c-2 0-3.7-1.7-3.7-3.7s1.7-3.7 3.7-3.7 3.7 1.7 3.7 3.7-1.7 3.7-3.7 3.7M669.8 333.7c-.8 0-1.4.6-1.4 1.4 0 .8.6 1.4 1.4 1.4.8 0 1.4-.6 1.4-1.4 0-.7-.6-1.4-1.4-1.4m0 5.2c-2 0-3.7-1.7-3.7-3.7s1.7-3.7 3.7-3.7 3.7 1.7 3.7 3.7-1.7 3.7-3.7 3.7M581.2 252.6l.5 4 51.8-8.9-.7-4.2-51.6 9.1zm-1.1 8.2c-.4 0-.8-.1-1.2-.4-.4-.3-.7-.8-.8-1.3l-1.1-7.8c-.1-1 .6-2 1.6-2.2l55.3-9.8c.5-.1 1 0 1.5.3.4.3.7.8.8 1.3l1.3 8.1c.2 1-.5 2-1.6 2.2l-55.6 9.6h-.2M445.7 233.5h-.1l-3.8-.3c-.5 0-1-.4-1.1-.9l-21.1-62.7-2.6-.2-7.4 59.8c-.1.7-.7 1.2-1.4 1.1-.7-.1-1.2-.7-1.1-1.4l7.6-61.1c.1-.7.7-1.2 1.4-1.1l4.7.4c.5 0 .9.4 1.1.9l21.1 62.7 1.7.1 6-60.8c.1-.7.7-1.2 1.4-1.2.7.1 1.2.7 1.2 1.4l-6.1 62.1c-.3.7-.9 1.2-1.5 1.2M591.2 409.5h-.3c-3-.2-3.9-3.6-4.8-6.7-.3-1.2-1-3.8-1.6-4.1-.6.2-1.5 2.6-2.1 3.8-1.2 2.9-2.6 6.2-5.6 6-3-.2-3.9-3.6-4.8-6.7-.4-1.3-1-3.8-1.6-4.1-.6.2-1.5 2.6-2.1 3.8-1.2 2.9-2.6 6.2-5.6 6-3-.2-3.9-3.6-4.8-6.7-.4-1.3-1-3.8-1.6-4.1-1-.1-1.7-.9-1.6-1.9.1-1 .9-1.7 1.9-1.6 3 .2 3.9 3.6 4.8 6.7.4 1.3 1 3.8 1.6 4.1.6-.2 1.5-2.6 2.1-3.8 1.2-2.9 2.5-6.2 5.6-6 3 .2 3.9 3.6 4.8 6.7.4 1.3 1 3.8 1.6 4.1.6-.2 1.5-2.6 2.1-3.8 1.2-2.9 2.5-6.2 5.6-6 3 .2 3.9 3.6 4.8 6.7.4 1.3 1 3.8 1.6 4.1.6-.2 1.6-2.7 2.1-3.8 1.2-2.9 2.6-6.2 5.6-6 1 .1 1.7.9 1.7 1.9-.1 1-.9 1.7-1.9 1.7-.6.2-1.6 2.6-2.1 3.8-1.2 2.7-2.5 5.9-5.4 5.9M308.8 311.7l7.5 30c2.1-.5 16.3-4.1 19.8-6 3.6-1.9 8.1-8.3 5.5-17.8-1.1-4.2-3.4-7.4-6.8-9.3-3.3-1.9-7.4-2.4-11.2-1.3-5.8 1.6-12.2 3.6-14.8 4.4m14.1 62.4c-.6 0-1.1-.4-1.2-1l-15.6-61.9c-.2-.7.2-1.3.9-1.5.1 0 8.4-2.7 16.1-4.8 4.5-1.2 9.3-.7 13.2 1.5 3.9 2.3 6.7 6 8 10.9 2.9 11-2.5 18.5-6.8 20.8-3.9 2.1-18.1 5.7-20.4 6.2l7.1 28.3c.2.7-.2 1.4-.9 1.6-.2-.2-.3-.1-.4-.1M354.8 365.8c-.4 0-.8-.2-1-.5l-19.4-26.7c-.4-.6-.3-1.4.3-1.8.6-.4 1.4-.3 1.8.3l19.4 26.7c.4.6.3 1.4-.3 1.8-.3.2-.6.2-.8.2M606.3 170.3c-7.5.1-13.4 6.3-13.3 13.8.1 7.5 6.3 13.4 13.8 13.3 7.5-.1 13.4-6.3 13.3-13.8-.2-7.5-6.4-13.5-13.8-13.3m.5 31.5c-9.9.2-18.2-7.8-18.4-17.7-.2-10 7.8-18.2 17.7-18.4 9.9-.2 18.2 7.8 18.4 17.7.2 10-7.7 18.3-17.7 18.4M607.4 194.8c-1.4 0-2.8-.2-4.2-.7-.6-.2-.9-.9-.6-1.5.2-.6.9-.9 1.5-.6 3.3 1.3 7.3.4 9.6-2.2 2.2-2.4 2.4-5.7.7-9.1-.3-.6-.1-1.2.5-1.5.6-.3 1.2-.1 1.5.5 2.1 4.2 1.8 8.5-1 11.6-2.1 2.2-5 3.5-8 3.5"/></svg>