<svg xmlns="http://www.w3.org/2000/svg" viewBox="118 256.6 414.2 315.4" enable-background="new 118 256.6 414.2 315.4"><g fill="#FFB938"><path d="M199 561.8c-.2 0-.4-.1-.6-.1l-8.8-4.1c-.7-.3-1-1.2-.7-1.9s1.2-1 1.9-.7l6.5 3.1-1.7-15.7c-.1-.6.2-1.1.6-1.4.4-.3 1.1-.3 1.5 0l8.4 5.2-1.7-15.2c-.1-.4.1-.9.4-1.2.3-.3.8-.4 1.2-.4l13.1 2.4 9 2.1c.4.1.8.3 1 .7s.3.8.1 1.1l-2.7 7.7 9.1.6c.8.1 1.4.8 1.3 1.5-.1.8-.8 1.4-1.5 1.3l-10.9-.8c-.4 0-.8-.3-1.1-.6-.3-.4-.3-.8-.2-1.3l2.7-8-7.4-1.7-11.2-2 1.8 16.3c.1.6-.2 1.1-.6 1.4-.4.3-1.1.3-1.5 0l-8.4-5.2 1.7 15.2c.1.5-.2 1-.6 1.3-.2.3-.4.4-.7.4M217.9 572c-.4 0-.9-.3-1.1-.6-.3-.4-.3-1-.1-1.5l6.6-13.3-11.5-5c-.7-.3-1-1.1-.8-1.8l6.1-15.4-11.4-2c-.6-.1-1.1-.6-1.1-1.3l-.5-8-8.7 2.6c-.4.1-.8.1-1.2-.2s-.6-.6-.6-1l-1.6-12.6c-.1-.8.4-1.5 1.3-1.6.8-.1 1.5.4 1.6 1.3l1.4 10.9 8.9-2.7c.4-.1.9-.1 1.2.2.4.3.6.6.6 1.1l.6 8.7 12 2.2c.4.1.8.3 1 .7s.3.8.1 1.2l-6.2 15.7 11.6 5.1c.4.1.6.4.8.8.1.4.1.8-.1 1.1l-6.1 12.3 6.7-.8c.8-.1 1.5.5 1.6 1.3s-.5 1.5-1.3 1.6l-9.7 1h-.1M219 524.8c-.4 2.5-2.9 4.3-5.4 3.9-2.6-.4-4.3-2.9-3.9-5.4.4-2.5 2.9-4.3 5.4-3.9 2.6.3 4.3 2.8 3.9 5.4M129 308.3c-.2 0-.4-.1-.5-.1l-9.6-3.9c-.8-.3-1.1-1.1-.8-1.8.3-.8 1.1-1.1 1.8-.8l7.5 3-.6-10.9c0-.5.3-1 .7-1.3.4-.3 1-.3 1.5-.1l9.4 5.3-1.7-13.5c-.1-.8.4-1.5 1.2-1.6l12.8-1.8 9.3-6 .2-12.8c0-.6.3-1.1.8-1.3l8.7-4c.7-.3 1.6 0 1.9.7.3.7 0 1.6-.7 1.9L163 263l-.2 12.7c0 .5-.3 1-.6 1.2l-10.2 6.6c-.2.1-.4.2-.6.2l-11.6 1.7 1.9 14.9c.1.5-.2 1.1-.6 1.4s-1 .3-1.5.1l-9.6-5.4.6 10.5c0 .5-.2 1-.6 1.3-.4.1-.7.1-1 .1M156.4 312.4c-.4 0-.8-.2-1-.4-.3-.4-.4-.8-.3-1.3l2.6-10.5-12.2 3.7c-.5.1-1.1 0-1.4-.4-.4-.4-.5-.9-.4-1.4l5.4-18-10.8 1.5c-.8.1-1.5-.4-1.6-1.2l-1.9-12-9.4 6.2c-.4.3-.9.3-1.3.1-.4-.2-.8-.6-.8-1.1l-2.4-13.7c-.1-.8.4-1.5 1.1-1.7.8-.1 1.5.4 1.7 1.1l2 11.5 9.4-6.2c.4-.3.9-.3 1.3-.1.4.2.8.6.8 1.1l2 12.8 11.6-1.7c.5-.1 1 .1 1.3.5s.4.9.3 1.3l-5.3 17.6 12.1-3.6c.5-.1 1 0 1.4.3.4.4.5.9.4 1.4l-2.7 10.8 7.6-1.4c.8-.1 1.5.4 1.7 1.1.1.8-.4 1.5-1.1 1.7l-9.8 1.8c-.1.2-.2.2-.3.2M149.7 274.5c-.3 2.6-2.6 4.5-5.2 4.2-2.6-.3-4.5-2.6-4.2-5.2s2.6-4.5 5.2-4.2c2.6.3 4.4 2.6 4.2 5.2M495.9 411.2l-10.5-.1c-.8 0-1.5-.6-1.5-1.5 0-.8.6-1.5 1.5-1.5l8.7.1-3.8-19c-.1-.5.1-1.1.5-1.4s1-.4 1.5-.3l5.2 1.9-4.5-11.8c-.3-.8.1-1.6.8-1.9.8-.3 1.6.1 1.9.8l5.7 14.8c.2.5.1 1.1-.3 1.5s-1 .6-1.5.3l-5.7-2.1 3.6 18.2c.1.4 0 .9-.3 1.2-.5.6-.8.8-1.3.8M518.6 380.1c-.3 0-.5-.1-.8-.2l-11.3-6.8-11.7 5.5c-.7.3-1.6.1-2-.7-.3-.7-.1-1.6.7-2l12.4-5.9c.4-.2 1-.2 1.4.1l10.3 6.2 3.1-11.7c.1-.4.4-.8.9-1l8.6-3.1c.8-.3 1.6.1 1.9.9.3.8-.1 1.6-.9 1.9l-7.9 2.9-3.4 12.8c-.1.4-.4.8-.9 1 0 0-.2.1-.4.1M483 392.6c-.3 0-.6-.1-1-.3l-7.6-6.2c-.6-.5-.7-1.3-.3-2l6.4-9.1c.3-.4.8-.7 1.3-.6l12.4 1.3c.8.1 1.4.8 1.3 1.6-.1.8-.8 1.4-1.6 1.3l-11.6-1.2-5.1 7.3 6.5 5.3c.6.5.7 1.5.2 2 0 .4-.5.6-.9.6M511.1 406.6c-.3 0-.6-.1-.8-.3-.4-.3-.6-.8-.6-1.2l.4-19.4-5.7 1.5c-.5.1-1 0-1.4-.3s-.6-.8-.4-1.3l2.5-14.5c.1-.8.9-1.3 1.7-1.2.8.1 1.3.9 1.2 1.7l-2.2 12.2 5.3-1.5c.4-.1 1 0 1.3.3.4.3.6.7.6 1.2l-.4 19.2 8.7-3.1c.8-.3 1.6.1 1.8.9.3.8-.1 1.6-.9 1.8l-10.7 3.8c0 .2-.2.2-.4.2M531.9 353.7c.2 2.6-1.7 4.8-4.3 5s-4.8-1.7-5-4.3c-.2-2.6 1.7-4.8 4.3-5 2.5-.3 4.8 1.7 5 4.3M171 294c0 2.5-2.1 4.6-4.7 4.6s-4.7-2-4.7-4.6 2.1-4.6 4.7-4.6 4.7 2.1 4.7 4.6M166.5 290.5c-2.1 0-3.8 1.7-3.8 3.8 0 2.1 1.7 3.8 3.8 3.8s3.8-1.7 3.8-3.8-1.7-3.8-3.8-3.8m-.2 8.6c-2.9 0-5.2-2.3-5.2-5.1s2.3-5.1 5.2-5.1 5.2 2.3 5.2 5.1-2.3 5.1-5.2 5.1"/></g><path fill="#FFB938" d="M222.8 326.4c-.1 0-.2.1-.3.1-.8.1-1.5-.4-1.7-1.2l-1.5-9.1-6.7 1.1 1 5.7c.1.8-.4 1.5-1.2 1.7-.8.1-1.5-.4-1.7-1.2l-1.1-7.1c-.1-.8.4-1.5 1.2-1.7l9.5-1.6c.4-.1.8 0 1.1.3.3.2.5.6.6 1l1.7 10.5c.2.7-.3 1.4-.9 1.5m-6.6 18.9c-.1 0-.2.1-.3.1-.8.1-1.5-.4-1.7-1.2l-.9-5.4c-.1-.8.4-1.5 1.2-1.7.8-.1 1.5.4 1.7 1.2l.9 5.4c.2.7-.3 1.4-.9 1.6m10 1.8c-.1 0-.2.1-.3.1-.8.1-1.5-.4-1.7-1.2l-2-12c-.1-.8.4-1.5 1.2-1.7.8-.1 1.5.4 1.7 1.2l2 12c.2.7-.2 1.3-.9 1.6m3.1 18.6c-.1 0-.2.1-.3.1l-9.5 1.6c-.8.1-1.5-.4-1.7-1.2l-1.1-6.7c-.1-.8.4-1.5 1.2-1.7.8-.1 1.5.4 1.7 1.2l.9 5.2 6.7-1.1-1.4-8.4c-.1-.8.4-1.5 1.2-1.7.8-.1 1.5.4 1.7 1.2l1.6 9.8c.1.4 0 .8-.3 1.1-.2.4-.4.5-.7.6M279.7 369.3l6.8.8 5.2-47.2-5.9-.6-3.1 28.2c-.1.4-.3.7-.5 1-.3.3-.7.3-1.1.3h-.1c-.6-.1-1-.4-1.2-1l-9.8-30.3-8.1-.9-5.2 47.2 5.9.6 3.4-30.9c.1-.4.3-.7.5-1 .3-.3.7-.3 1.1-.3h.1c.6.1 1 .4 1.2 1l10.8 33.1zm8.1 3.7h-.2l-9.2-1c-.6-.1-1-.4-1.2-1l-9.1-27.9-2.9 26c-.1.4-.3.7-.5 1-.3.3-.7.3-1.1.3l-8.7-1c-.8-.1-1.3-.8-1.3-1.6l5.5-50c.1-.4.3-.7.5-1 .3-.3.7-.3 1.1-.3l10.5 1.1c.6.1 1 .4 1.2 1l8.1 25.1 2.5-23.3c.1-.4.3-.7.5-1 .3-.3.7-.3 1.1-.3l8.7 1c.8.1 1.3.8 1.3 1.6l-5.5 50c.1.8-.5 1.3-1.3 1.3M328.4 310.7c-9.6.2-14.2 5.3-14.1 15.6l.2 18c.1 10.4 4.9 15.4 14.7 15.3h.2c9.6-.2 14.2-5.3 14.1-15.6v-.6l-6.8.1v1.9c.1 5.7-2.4 8.5-7.5 8.6-2.6 0-4.4-.6-5.7-1.8-1.5-1.4-2.2-3.6-2.2-6.6L321 325c-.1-5.7 2.4-8.5 7.5-8.7 5.3-.1 7.8 2.7 7.9 8.4l6.8-.1c-.3-4.8-1.7-8.4-4.1-10.7-2.4-2.2-5.9-3.3-10.5-3.3h-.2v.1zm.9 51.8h-.2c-11.3.1-17.4-6.1-17.5-18.1l-.2-18c-.1-11.9 5.7-18.3 17-18.5h.2c5.4-.1 9.6 1.3 12.5 4 3.3 3.1 5 7.8 5 14.1v.2c0 .8-.6 1.4-1.4 1.5l-9.6.1c-.4 0-.8-.1-1-.4-.3-.3-.4-.6-.4-1V325c-.1-4.7-1.8-5.7-4.9-5.6-3.1.1-4.8 1-4.8 5.7l.3 20.5c0 2.2.4 3.8 1.3 4.6.7.7 1.8 1 3.6 1 3.1-.1 4.8-1 4.8-5.7l-.1-3.4c0-.8.6-1.5 1.4-1.5l9.6-.1c.4 0 .8.1 1 .4.3.3.4.6.4 1v2.1c.1 11.8-5.7 18.3-17 18.5M365.5 368.8c-.4 0-.7-.1-1-.4s-.5-.7-.4-1.1l3.7-51.8c.1-.6.5-1.2 1.2-1.3l12.2-2.1c.6-.1 1.3.3 1.6.8l4.7 10.7c.3.7 0 1.6-.8 1.9-.7.3-1.6 0-1.9-.8l-4.1-9.6-9.9 1.7-3.4 48.8 6.2-1.1.8-9.8c.1-.6.5-1.2 1.2-1.3l13.1-2.3c.6-.1 1.3.3 1.6.8l3.8 9 6.1-1.1-7.3-17c-.3-.7 0-1.6.8-1.9.7-.3 1.6 0 1.9.8l8.1 18.7c.2.4.1.9-.1 1.3s-.6.6-1 .8l-9.1 1.6c-.6.1-1.3-.3-1.6-.8l-3.8-9-10.9 1.9-.8 9.8c-.1.6-.5 1.2-1.2 1.3l-9.1 1.6c-.4-.1-.5-.1-.6-.1M202.9 418.9l2.8 10.7 3.4-.9c1.7-.4 2.9-1.2 3.6-2.2.6-1.1.8-2.6.3-4.5-1-3.8-3.1-4.3-4.5-4.3-.6 0-1.3.1-2.1.3l-3.5.9zm1.7 13.9c-.3 0-.5-.1-.7-.2-.3-.2-.6-.5-.6-.9l-3.6-13.5c-.1-.4-.1-.8.1-1.1.2-.3.5-.6.9-.6l4.8-1.3c1-.3 2-.4 2.9-.4 2.6 0 5.9 1.1 7.3 6.4.7 2.7.5 4.9-.6 6.7-1 1.7-2.8 2.9-5.3 3.5l-4.8 1.3c-.1 0-.2.1-.4.1m-13.1-19.1l12.2 45.9 6.5-1.7-4.9-18.4c-.2-.8.3-1.5 1-1.8l4.5-1.1c.6-.1 1.1.1 1.5.5l12.8 16.9 6.9-1.8-13.6-17.6c-.3-.3-.3-.7-.3-1.1.1-.4.3-.7.6-1 3.9-2.8 5-6.9 3.5-12.8-1.8-6.7-5.9-10.1-12.2-10.1-1.9 0-4.1.3-6.4.9l-12.1 3.2zm11.2 49c-.6 0-1.2-.4-1.4-1.1L188.4 413c-.2-.8.3-1.5 1-1.8l13.5-3.6c11.6-3.1 19.4 1 22.1 11.2 1.7 6.4.6 11.5-3.4 15l14 18.2c.3.4.4.9.3 1.3-.1.4-.5.8-1 1l-9.9 2.6c-.6.1-1.1-.1-1.5-.5l-12.8-16.9-2.1.6 4.9 18.4c.1.4.1.8-.1 1.1-.2.3-.5.6-.9.6l-9.3 2.5h-.5M250.5 426.7c-.7 0-1.3-.6-1.4-1.3l-.4-3.8c-.1-.8.5-1.5 1.3-1.6s1.5.5 1.6 1.3l.4 3.8c.1.8-.5 1.5-1.3 1.6h-.2m9.9 2.4c-.7 0-1.3-.6-1.4-1.3l-1.1-10.9c-.1-.8.5-1.5 1.3-1.6s1.5.5 1.6 1.3l1.1 10.9c.1.8-.5 1.5-1.3 1.6h-.2m6.2 10.4c-3.4 0-5.5-1.5-6.6-4.7-.3-.8.1-1.6.9-1.8.8-.3 1.6.1 1.8.9.8 2.2 2 2.9 4.9 2.7 1.7-.2 2.8-.6 3.4-1.4.8-.9 1-2.5.8-4.7l-2-20.4c-.2-2.2-.8-3.8-1.7-4.5-.8-.6-2-.8-3.6-.7-2.9.3-4.5 1.3-4.3 5.4.1.8-.6 1.5-1.3 1.5s-1.5-.6-1.5-1.3c-.3-5.2 2-8 6.9-8.5 2.5-.3 4.3.2 5.7 1.3 1.6 1.3 2.5 3.4 2.7 6.4l2 20.4c.3 3.1-.2 5.3-1.5 6.8-1.1 1.4-2.9 2.2-5.4 2.4-.4.2-.8.2-1.2.2m-.6 8.6c-7.1 0-11.9-3-14.5-9-.3-.7 0-1.6.8-1.9.7-.3 1.6 0 1.9.8 2.4 5.5 7.1 7.8 14.3 7.1 9.7-1 13.9-6.4 12.9-16.8l-1.8-17.9c-1-10.3-6.2-14.9-15.9-14-8 .8-12.3 4.7-12.9 11.9-.1.8-.8 1.3-1.5 1.3-.8-.1-1.4-.8-1.3-1.5.8-8.5 6.1-13.6 15.5-14.5 11.3-1.1 17.9 4.6 19.1 16.5l1.8 17.9c1.2 11.9-4.1 18.8-15.4 20-1.2 0-2.1.1-3 .1M316.4 434.5h5.9l-2.9-12.9-3 12.9zm7.7 2.9h-9.6c-.4 0-.8-.2-1.1-.6-.3-.3-.4-.8-.3-1.2l4.8-20.3c.1-.6.7-1.1 1.4-1.1h.1c.7 0 1.3.4 1.4 1.1l4.7 20.4c.1.4 0 .9-.3 1.2-.2.3-.6.5-1.1.5m5.6 16.2h6.2l-11.3-47.5h-10.1l-11.9 47.5h6.3l2.5-9.5c.2-.6.8-1.1 1.4-1.1h13.3c.7 0 1.3.4 1.4 1.1l2.2 9.5zm8 2.9h-9.2c-.7 0-1.3-.4-1.4-1.1l-2.2-9.5h-11.1l-2.5 9.5c-.2.6-.8 1.1-1.4 1.1h-9.3c-.4 0-.8-.2-1.1-.6-.3-.3-.4-.8-.3-1.2l12.6-50.4c.2-.6.8-1.1 1.4-1.1h12.4c.6 0 1.2.4 1.4 1.1l12 50.4c.1.4 0 .9-.3 1.2-.1.4-.5.6-1 .6M366.4 446.9l1.9.1c.3 0 .7.1 1 .1 3.1 0 6-1 6.6-8.1l1-13.2c.6-7.2-1.8-8.8-6.2-9.1l-1.9-.1-2.4 30.3zm3 3c-.4 0-.8 0-1.2-.1l-3.3-.3c-.4 0-.7-.2-1-.5s-.4-.6-.3-1l2.6-33.3c.1-.8.7-1.4 1.5-1.3l3.3.3c6.8.5 9.5 4.3 8.9 12.2l-1 13.2c-.7 7.3-3.7 10.8-9.5 10.8m-13.2 4.7l11.9.9c10.8.8 16.1-3.6 17.3-14.8l1.1-15.4c.5-11.2-4-16.4-14.9-17.2l-11.9-.9-3.5 47.4zm14.4 3.9c-.8 0-1.7-.1-2.7-.1l-13.4-1c-.8-.1-1.4-.8-1.3-1.5l3.8-50.2c.1-.8.7-1.4 1.5-1.3l13.3 1c12.5 1 18.1 7.4 17.5 20.2l-1.2 15.5c-1.1 11.7-6.9 17.4-17.5 17.4M406.5 439.9c1.3 8 5.7 12.6 12.9 13.6 1.1.1 2.2.3 3.1.3 7.3 0 12.1-4 13.1-11 1.2-8.4-5-12.9-10.6-17-4.2-3.1-7.9-5.8-7.3-9.7.6-4.2 3.6-6.5 7.6-5.9 4.5.6 6.1 4.1 6.9 7.5l6.2-.9c-1.1-6.4-5.5-10.6-12.2-11.6-1.1-.1-2.1-.3-3.1-.3-7 0-11.2 3.8-12.2 10.8-1 6.8 4.4 10.8 9.6 14.7 4.7 3.4 9.1 6.8 8.4 11.8-.6 3.9-3.3 6.4-7.1 6.4-.4 0-.8 0-1.2-.1-3.2-.4-6.6-3.1-7.3-9.1l-6.8.5zm16 16.7c-1.1 0-2.4-.1-3.6-.3-6.2-.9-14-4.7-15.6-17.6-.1-.4.1-.8.3-1.1.3-.3.6-.5 1-.5l9.7-.7c.4 0 .8.1 1.1.4.3.3.4.6.5 1 .2 5.3 2.7 7.5 5 7.8.3.1.5.1.8.1 2.4 0 4-1.5 4.3-4 .5-3.4-3.1-6.1-7.2-9.1-5.3-4-11.9-8.9-10.7-17.4 1.2-8.5 6.7-13.3 15-13.3 1.1 0 2.3.1 3.5.3 8.5 1.2 14.1 7 14.9 15.6.1.8-.4 1.5-1.2 1.5l-8.9 1.3c-.8.1-1.5-.4-1.6-1.1-1-5-2.6-6.2-4.8-6.5-2.5-.4-4 .8-4.4 3.5-.3 2.2 2.7 4.5 6.2 7 5.5 4.1 13.1 9.6 11.7 19.7-1.2 8.3-7.2 13.4-16 13.4"/><path fill="#FFB938" d="M215.7 362.5c-.4-2.8 3.6-4.8 7.8-6.9 3.9-1.9 7.8-3.9 7.5-6.2-.4-2.4-4.8-2.9-9.1-3.5-4.7-.6-9.1-1.2-9.6-4.1-.4-2.8 3.6-4.8 7.8-6.9 3.9-1.9 7.8-3.9 7.5-6.2-.4-2.4-4.8-2.9-9.1-3.5-4.7-.6-9.1-1.2-9.6-4.1l.6-.1c.4 2.4 4.8 2.9 9.1 3.5 4.7.6 9.1 1.2 9.6 4.1.4 2.8-3.6 4.8-7.8 6.9-3.9 1.9-7.8 3.9-7.5 6.2.4 2.4 4.8 2.9 9.1 3.5 4.7.6 9.1 1.2 9.6 4.1.4 2.8-3.6 4.8-7.8 6.9-3.8 1.9-7.8 3.9-7.5 6.2l-.6.1zM216.5 363.6c-.1 0-.1.1-.3.1-.7.1-1.3-.4-1.5-1.1-.6-3.5 4-5.7 8.4-7.9 3.2-1.6 7.2-3.6 6.9-5.2s-4.7-2.2-8.2-2.7c-4.8-.6-9.8-1.3-10.5-4.8-.6-3.5 4-5.7 8.4-7.9 3.2-1.6 7.2-3.6 6.9-5.2-.3-1.7-4.7-2.2-8.2-2.7-4.8-.6-9.9-1.3-10.5-4.8-.1-.7.4-1.3 1.1-1.5s1.3.4 1.5 1.1c.3 1.7 4.7 2.2 8.2 2.7 4.8.6 9.8 1.3 10.4 4.8.6 3.5-4 5.7-8.4 7.9-3.2 1.6-7.2 3.6-6.9 5.2.3 1.7 4.7 2.2 8.2 2.7 4.8.6 9.8 1.3 10.5 4.8.6 3.5-4 5.7-8.4 7.9-3.2 1.6-7.2 3.6-6.9 5.2.2.7-.1 1.2-.7 1.4M250.2 442.4c-.6 0-1.1-.4-1.2-1.1-.3-3.1 3.7-4.8 7.5-6.4 2.6-1.1 6.2-2.6 6.1-4-.1-1.3-4-2-6.8-2.5-4.1-.8-8.4-1.5-8.8-4.7-.3-3.1 3.7-4.8 7.5-6.4 2.6-1.1 6.2-2.6 6.1-4-.1-1.3-4-2-6.8-2.5-4.1-.8-8.4-1.5-8.8-4.7-.1-.7.4-1.3 1.1-1.3s1.3.4 1.3 1.1c.1 1.3 4 2 6.8 2.5 4.1.8 8.4 1.5 8.8 4.7.3 3.1-3.6 4.8-7.5 6.4-2.6 1.1-6.2 2.6-6.1 4 .1 1.3 4 2 6.8 2.5 4.1.8 8.4 1.5 8.8 4.7.3 3.1-3.6 4.8-7.5 6.4-2.6 1.1-6.2 2.6-6.1 4 .1.7-.4 1.3-1.2 1.3.1 0 .1 0 0 0M337.1 320.9c-.2 0-.4-.1-.6-.2-.3-.3-.4-.8-.1-1.1l9.4-10.7c.3-.3.8-.4 1.1-.1s.4.8.1 1.1l-9.4 10.7c0 .2-.3.3-.5.3M348.9 316.3h-.1l-14.2-1.5c-.4-.1-.8-.4-.7-.9.1-.4.4-.8.9-.7l14.2 1.5c.4.1.8.4.8.9-.1.4-.5.6-.9.7M317.2 396.4l6.6-.1-3.5-7.7-3.1 7.8zm7.7 2.6h-10.3c-.4 0-.8-.2-1-.6-.3-.3-.3-.8-.1-1.1l5-12.2c.2-.4.6-.8 1.1-.8s1 .3 1.1.8l5.3 12.2c.2.4.1.8-.1 1.1-.2.4-.6.6-1 .6M203.9 475.6c-.9 0-1.8-.2-2.6-.5-2.5-1-4.1-3.4-4.3-6.3-.1-.7.5-1.4 1.2-1.4.7-.1 1.4.5 1.4 1.2.1 1.9 1.1 3.4 2.7 4.1 1.5.6 3.3.3 4.8-.9.6-.4 1.4-.4 1.8.2.4.6.4 1.4-.2 1.8-1.3 1.1-3 1.8-4.8 1.8M419.3 424.1c-.5 0-.9.4-.9.9s.4.9.9.9.9-.4.9-.9-.4-.9-.9-.9m0 3.3c-1.3 0-2.4-1.1-2.4-2.4s1.1-2.4 2.4-2.4 2.4 1.1 2.4 2.4c-.1 1.3-1.1 2.4-2.4 2.4M427 430.2c-.5 0-.9.4-.9.9s.4.9.9.9.9-.4.9-.9c0-.4-.4-.9-.9-.9m0 3.3c-1.3 0-2.4-1.1-2.4-2.4s1.1-2.4 2.4-2.4 2.4 1.1 2.4 2.4c0 1.4-1.1 2.4-2.4 2.4M370.5 378.5l.3 2.5 33-5.7-.4-2.7-32.9 5.9zm-.7 5.3c-.3 0-.5-.1-.8-.3-.3-.2-.4-.5-.5-.8l-.7-5c-.1-.6.4-1.3 1-1.4l35.3-6.2c.3-.1.6 0 1 .2.3.2.4.5.5.8l.8 5.2c.1.6-.3 1.3-1 1.4l-35.4 6.1h-.2M284.1 366.4l-2.5-.2c-.3 0-.6-.3-.7-.6l-13.5-40-1.7-.1-4.7 38.1c-.1.4-.4.8-.9.7-.4-.1-.8-.4-.7-.9l4.8-39c.1-.4.4-.8.9-.7l3 .3c.3 0 .6.3.7.6l13.5 40 1.1.1 3.8-38.8c.1-.4.4-.8.9-.8.4.1.8.4.8.9l-3.9 39.6c-.1.4-.5.8-.9.8M376.9 478.6h-.2c-1.9-.1-2.5-2.3-3.1-4.3-.2-.8-.6-2.4-1-2.6-.4.1-1 1.7-1.3 2.4-.8 1.8-1.7 4-3.6 3.8-1.9-.1-2.5-2.3-3.1-4.3-.3-.8-.6-2.4-1-2.6-.4.1-1 1.7-1.3 2.4-.8 1.8-1.7 4-3.6 3.8-1.9-.1-2.5-2.3-3.1-4.3-.3-.8-.6-2.4-1-2.6-.6-.1-1.1-.6-1-1.2s.6-1.1 1.2-1c1.9.1 2.5 2.3 3.1 4.3.3.8.6 2.4 1 2.6.4-.1 1-1.7 1.3-2.4.8-1.8 1.6-4 3.6-3.8 1.9.1 2.5 2.3 3.1 4.3.3.8.6 2.4 1 2.6.4-.1 1-1.7 1.3-2.4.8-1.8 1.6-4 3.6-3.8 1.9.1 2.5 2.3 3.1 4.3.3.8.6 2.4 1 2.6.4-.1 1-1.7 1.3-2.4.8-1.8 1.7-4 3.6-3.8.6.1 1.1.6 1.1 1.2-.1.6-.6 1.1-1.2 1.1-.4.1-1 1.7-1.3 2.4-.8 1.6-1.7 3.7-3.5 3.7M196.9 416.2l4.8 19.1c1.3-.3 10.4-2.6 12.6-3.8 2.3-1.2 5.2-5.3 3.5-11.3-.7-2.7-2.2-4.7-4.3-5.9-2.1-1.2-4.7-1.5-7.1-.8-3.8.9-7.9 2.2-9.5 2.7m8.9 39.8c-.4 0-.7-.3-.8-.6l-9.9-39.5c-.1-.4.1-.8.6-1 .1 0 5.4-1.7 10.3-3.1 2.9-.8 5.9-.4 8.4 1 2.5 1.5 4.3 3.8 5.1 6.9 1.8 7-1.6 11.8-4.3 13.3-2.5 1.3-11.5 3.6-13 4l4.5 18c.1.4-.1.9-.6 1-.1-.1-.2 0-.3 0M226.2 450.7c-.3 0-.5-.1-.6-.3l-12.4-17c-.3-.4-.2-.9.2-1.1.4-.3.9-.2 1.1.2l12.4 17c.3.4.2.9-.2 1.1-.2.1-.4.1-.5.1M386.5 326.1c-4.8.1-8.5 4-8.5 8.8.1 4.8 4 8.5 8.8 8.5s8.5-4 8.5-8.8c-.1-4.8-4.1-8.7-8.8-8.5m.3 20c-6.3.1-11.6-5-11.7-11.3-.1-6.4 5-11.6 11.3-11.7s11.6 5 11.7 11.3c.1 6.4-4.9 11.7-11.3 11.7M387.2 341.7c-.9 0-1.8-.1-2.7-.4-.4-.1-.6-.6-.4-1 .1-.4.6-.6 1-.4 2.1.8 4.7.3 6.1-1.4 1.4-1.5 1.5-3.6.4-5.8-.2-.4-.1-.8.3-1s.8-.1 1 .3c1.3 2.7 1.1 5.4-.6 7.4-1.3 1.5-3.2 2.3-5.1 2.3"/></svg>